<svg xmlns="http://www.w3.org/2000/svg" xmlns:fi="http://pattern.flaticon.com/" xmlns:xlink="http://www.w3.org/1999/xlink" viewBox="0 0 339 339"><defs><g id="a" transform="matrix(.11719 0 0 .11719 221 132)"><circle cx="256" cy="256" r="112" fill="#ffcf00"/><path fill="#ffcf00" d="M256 72c4.422 0 8-3.582 8-8V8c0-4.418-3.578-8-8-8s-8 3.582-8 8v56c0 4.418 3.578 8 8 8zM256 120c4.422 0 8-3.582 8-8V96c0-4.418-3.578-8-8-8s-8 3.582-8 8v16c0 4.418 3.578 8 8 8zM256 440c-4.422 0-8 3.578-8 8v56c0 4.422 3.578 8 8 8s8-3.578 8-8v-56c0-4.422-3.578-8-8-8zM256 392c-4.422 0-8 3.578-8 8v16c0 4.422 3.578 8 8 8s8-3.578 8-8v-16c0-4.422-3.578-8-8-8zM504 248h-56c-4.422 0-8 3.578-8 8s3.578 8 8 8h56c4.422 0 8-3.578 8-8s-3.578-8-8-8zM400 248c-4.422 0-8 3.578-8 8s3.578 8 8 8h16c4.422 0 8-3.578 8-8s-3.578-8-8-8h-16zM72 256c0-4.422-3.578-8-8-8H8c-4.422 0-8 3.578-8 8s3.578 8 8 8h56c4.422 0 8-3.578 8-8zM112 248H96c-4.422 0-8 3.578-8 8s3.578 8 8 8h16c4.422 0 8-3.578 8-8s-3.578-8-8-8z"/><path fill="#ff9300" d="M148.523 352.164l-66.18 66.18a7.998 7.998 0 0 0 0 11.313C83.906 431.219 85.953 432 88 432s4.094-.781 5.656-2.344l66.18-66.18c3.125-3.125 3.125-8.188 0-11.313s-8.188-3.124-11.313.001zM357.82 162.176a7.97 7.97 0 0 0 5.656-2.344l66.18-66.176c3.125-3.125 3.125-8.188 0-11.313s-8.187-3.125-11.312 0l-66.18 66.176a7.998 7.998 0 0 0 0 11.313 7.97 7.97 0 0 0 5.656 2.344z"/><path fill="#ff7400" d="M193.5 126.023a8.006 8.006 0 0 0 7.391 4.941 8 8 0 0 0 3.063-.613c4.078-1.691 6.016-6.371 4.328-10.453L183.789 60.77c-1.688-4.082-6.383-6-10.453-4.328-4.078 1.691-6.016 6.371-4.328 10.453l24.492 59.128zM318.5 385.976c-1.695-4.078-6.383-6-10.453-4.328-4.078 1.688-6.016 6.367-4.328 10.453l24.492 59.125a8.003 8.003 0 0 0 10.454 4.329c4.078-1.688 6.016-6.367 4.328-10.453L318.5 385.976z"/><path fill="#ff9300" d="M363.476 352.164c-3.125-3.125-8.188-3.125-11.313 0s-3.125 8.188 0 11.313l66.18 66.18a7.972 7.972 0 0 0 5.656 2.344 7.97 7.97 0 0 0 5.656-2.344 7.998 7.998 0 0 0 0-11.313l-66.179-66.18zM148.523 159.832c1.563 1.563 3.609 2.344 5.656 2.344s4.094-.781 5.656-2.344a7.998 7.998 0 0 0 0-11.313l-66.18-66.176c-3.125-3.125-8.188-3.125-11.313 0s-3.125 8.188 0 11.313l66.181 66.176z"/><path fill="#ff7400" d="M308.047 130.352c1 .414 2.039.613 3.063.613a8.007 8.007 0 0 0 7.391-4.941l24.492-59.129c1.688-4.082-.25-8.762-4.328-10.453-4.055-1.676-8.766.242-10.453 4.328l-24.492 59.129a8.005 8.005 0 0 0 4.327 10.453zM203.953 381.648c-4.055-1.68-8.766.242-10.453 4.328l-24.492 59.125c-1.688 4.086.25 8.766 4.328 10.453a8.003 8.003 0 0 0 10.454-4.329l24.492-59.125c1.687-4.085-.251-8.764-4.329-10.452zM130.352 308.047c-1.688-4.086-6.391-6.016-10.453-4.328l-59.125 24.492c-4.078 1.688-6.016 6.367-4.328 10.453a8.003 8.003 0 0 0 10.454 4.329l59.125-24.492c4.077-1.689 6.014-6.368 4.327-10.454zM381.648 203.953a8.003 8.003 0 0 0 10.454 4.329l59.125-24.492c4.078-1.688 6.016-6.367 4.328-10.453-1.688-4.078-6.391-6-10.453-4.328L385.976 193.5c-4.078 1.687-6.015 6.367-4.328 10.453zM60.773 183.789l59.125 24.492a8.003 8.003 0 0 0 10.454-4.329c1.688-4.086-.25-8.766-4.328-10.453l-59.125-24.492c-4.063-1.676-8.766.25-10.453 4.328-1.688 4.087.249 8.767 4.327 10.454zM451.226 328.211l-59.125-24.492c-4.063-1.688-8.766.242-10.453 4.328s.25 8.766 4.328 10.453l59.125 24.492a8.003 8.003 0 0 0 10.454-4.329c1.687-4.085-.251-8.765-4.329-10.452z"/></g><g id="c"><path fill="#48bbee" d="M303.227 8.435zM206.305 187.699c8.57 0 16.961 2.504 24.234 7.316l20.541 13.599a15.998 15.998 0 0 0 13.905 1.833l36.952-12.354 6.18-5.582a17.616 17.616 0 0 0 5.797-13.117 17.658 17.658 0 0 0-4.391-11.551l-39.044 11.585a4.01 4.01 0 0 1-3.847-.886l-26.227-24.004c-1.742-1.598-3.68-.977-4.227-.746-.547.227-2.359 1.152-2.469 3.504l2.258 17.809a4 4 0 0 1-6.625 3.48l-21.773-19.305a19.986 19.986 0 0 0-22.937 3.035l-6.962 17.486a16.004 16.004 0 0 1-5.291 6.902l-11.052 8.253 37.273-6.578a44.384 44.384 0 0 1 7.705-.679z" transform="rotate(-7.442 1162.574 -416.15) scale(.06834)"/><path fill="#48bbee" d="M319.172 13.384a239.392 239.392 0 0 1 53.904 26.892l-.058.003a241.101 241.101 0 0 1 45.422 39.314l.018-.034c7.273 8.084 13.975 16.683 20.102 25.705a240.49 240.49 0 0 1 8.612 13.64 241.973 241.973 0 0 1 4.949 8.822l-.012.039a238.412 238.412 0 0 1 26.106 83.412c-.566.07-1.146.081-1.708-.09l-77.07-24.492 3.594 15.977c.758 3.348 2.82 6.117 5.805 7.809 2.984 1.688 6.422 2.02 9.672.945l8.898-2.945a3.956 3.956 0 0 1 3.602.555 4 4 0 0 1 1.656 3.242V233.927a27.98 27.98 0 0 1-11.328 22.485l-22.887 18.405a8 8 0 0 1-11.413-1.435l-37.037-49.383a31.998 31.998 0 0 0-15.481-11.158L320 208l60.539 78.621c5.438 4.527 12.445 6.926 19.836 6.414l11.359-.777c1.227-.055 2.43.402 3.258 1.324a4.017 4.017 0 0 1 .953 3.383l-4.672 25.75a4.004 4.004 0 0 1-1.195 2.195l-46.875 44.164-35.023 88.531a3.985 3.985 0 0 1-2.617 2.371 48.3 48.3 0 0 1-13.367 1.895c-8.133 0-16.18-2.082-23.476-6.176-11.227-6.293-19.289-16.566-22.703-28.934-2.703-9.797-4.016-16.324-4.016-19.957v-33.391l-5.406-2.078a76.116 76.116 0 0 1-31.844-23.18l-12.375-15.328-53.172 9.492a35.527 35.527 0 0 1-6.877.541c15.355 56.699 50.972 105.065 98.597 136.862-3.624.164-7.261.278-10.924.278 132.548 0 240-107.452 240-240 0-104.804-67.184-193.902-160.828-226.616z" transform="rotate(-7.442 1162.574 -416.15) scale(.06834)"/><path fill="#48bbee" d="M311.64 150.129l12.453-9.207c.514-.38.838-.896 1.233-1.364l.261-.087c2.206-2.765 2.385-6.76.177-9.74-2.609-3.547-7.633-4.305-11.188-1.676l-10.328 7.641h-19.586c-4.422 0-8 3.582-8 8s3.578 8 8 8h22.219a8.023 8.023 0 0 0 4.759-1.567zM355.179 142.488a7.968 7.968 0 0 0 5.31-2.026c1.339-1.2 2.161-2.787 2.486-4.462l.045-.012a7.956 7.956 0 0 0-1.389-6.214l-20.477-28.086c-2.602-3.563-7.602-4.355-11.172-1.75-3.57 2.602-4.359 7.609-1.75 11.18l20.477 28.086a7.994 7.994 0 0 0 6.47 3.284z" transform="rotate(-7.442 1162.574 -416.15) scale(.06834)"/><path fill="#0e94d7" d="M152.326 342.861a35.857 35.857 0 0 1-11.428-2.048 36.002 36.002 0 0 1-11.741-6.888c-.206-.18-.412-.358-.614-.543a34.971 34.971 0 0 1-.965-.923 35.796 35.796 0 0 1-.84-.858 37.418 37.418 0 0 1-.763-.825c-.337-.379-.662-.77-.984-1.165-.185-.227-.375-.448-.556-.681-.5-.644-.984-1.303-1.443-1.987v-.001l-5.819-8.667a59.94 59.94 0 0 1-9.361-43.306c.033-.2.061-.401.096-.6.043-.241.094-.482.14-.723.079-.416.155-.831.243-1.246.012-.059.028-.117.04-.176a59.93 59.93 0 0 1 5.367-14.95l.021-.043 12.258-23.644-.18-8.246c-.281-12.746 7.844-23.766 19.742-27.387l-10.867-3.023a19.984 19.984 0 0 1-14.609-18.199l-.578-10.691c-.57-10.629 7.273-19.836 17.859-20.957L148 143.953v-18.906c0-1.254.586-2.438 1.594-3.191l31.805-24.004a19.704 19.704 0 0 0 5.297-6.02l5.476-9.551-35.555 6.977a4.034 4.034 0 0 1-3.313-.836 3.988 3.988 0 0 1-1.461-3.09V74.367c0-10.938 4.883-21.148 13.406-28.02l50.094-40.402a4.003 4.003 0 0 1 4.508-.352l35.07 20.199a4.029 4.029 0 0 0 3.078.387 3.962 3.962 0 0 0 2.422-1.926L273.81 2.446l.016-.027c36.315 5.125 70.007 18.384 99.191 37.861l.058-.003a239.371 239.371 0 0 0-53.904-26.892l-.211-.074c-1.293-.451-2.592-.89-3.895-1.319-.187-.062-.375-.121-.562-.182a238.29 238.29 0 0 0-11.277-3.374c-.516-.141-1.031-.281-1.548-.419-1.049-.278-2.1-.55-3.154-.815-.64-.16-1.282-.314-1.923-.469-1.54-.373-3.086-.73-4.637-1.073-.931-.206-1.861-.414-2.797-.609-.859-.179-1.723-.346-2.585-.516a238.604 238.604 0 0 0-5.174-.964 255.883 255.883 0 0 0-3.306-.548c-.63-.101-1.257-.208-1.888-.304a240.348 240.348 0 0 0-4.989-.698c-.654-.085-1.31-.162-1.966-.242a232.217 232.217 0 0 0-3.573-.408 240.326 240.326 0 0 0-6.545-.611c-.267-.021-.531-.048-.798-.068a240.018 240.018 0 0 0-5.397-.342c-.552-.029-1.105-.052-1.658-.078a238.466 238.466 0 0 0-4.072-.155c-.553-.017-1.106-.034-1.66-.047C243.709.028 241.858 0 240 0 107.452 0 0 107.452 0 240s107.452 240 240 240c3.664 0 7.3-.114 10.924-.276-47.626-31.797-83.243-80.164-98.598-136.863zM113.18 87.945c2.32-3.77 7.242-4.953 11.008-2.629l12.789 7.852a8.012 8.012 0 0 1 3.625 8.551l-5.656 25.465c-.828 3.73-4.141 6.266-7.805 6.266a7.878 7.878 0 0 1-1.742-.191c-4.313-.957-7.031-5.23-6.078-9.543l4.422-19.898-7.93-4.867a8.001 8.001 0 0 1-2.633-11.006z" transform="rotate(-7.442 1162.574 -416.15) scale(.06834)"/><path fill="#00e389" d="M251.08 208.615l6.506 4.307 7.4-2.474a16.003 16.003 0 0 1-13.906-1.833zM306.883 151.695h.004a7.997 7.997 0 0 0 4.753-1.566l12.453-9.207-12.453 9.207a8.013 8.013 0 0 1-4.757 1.566zM444.112 183.373l5.092 19.037-49.767-15.815 77.07 24.492c.563.171 1.143.16 1.708.09a238.425 238.425 0 0 0-26.106-83.412l-7.524 24.997a56.014 56.014 0 0 0-.473 30.611zM330.374 288.44l-.877 1.315A31.998 31.998 0 0 1 302.875 304h-93.748a31.997 31.997 0 0 0-26.625 14.25l-15.068 22.602-8.221 1.467a35.957 35.957 0 0 1-18.314-1.504 35.89 35.89 0 0 0 11.428 2.048 35.527 35.527 0 0 0 6.877-.541l53.172-9.492 12.375 15.328a76.116 76.116 0 0 0 31.844 23.18l5.406 2.078v33.391c0 3.633 1.313 10.16 4.016 19.957 3.414 12.367 11.477 22.641 22.703 28.934 7.297 4.094 15.344 6.176 23.476 6.176a48.3 48.3 0 0 0 13.367-1.895 3.985 3.985 0 0 0 2.617-2.371l35.023-88.531 46.875-44.164a4.004 4.004 0 0 0 1.195-2.195l4.672-25.75a4.017 4.017 0 0 0-.953-3.383c-.828-.922-2.031-1.379-3.258-1.324l-11.359.777c-7.391.512-14.398-1.887-19.836-6.414l-34.502-5.129a15.989 15.989 0 0 0-15.663 6.945z" transform="rotate(-7.442 1162.574 -416.15) scale(.06834)"/><path fill="#00e389" d="M273.81 2.446c.139.02.28.027.419.047a238.678 238.678 0 0 1 38.16 8.692c.893.283 1.755.629 2.644.922 5.05 1.662 10.039 3.46 14.935 5.442 1.634.662 3.227 1.401 4.843 2.098 4.094 1.764 8.146 3.605 12.118 5.586 1.831.914 3.63 1.878 5.434 2.837a240.127 240.127 0 0 1 16.299 9.48c1.381.88 2.703 1.842 4.065 2.75-97.838 4.528-180.374 67.618-213.349 155.027l1.951-.371 11.052-8.253a15.99 15.99 0 0 0 5.291-6.902l6.962-17.486a19.985 19.985 0 0 1 22.937-3.035l21.773 19.305a4.001 4.001 0 0 0 6.625-3.48l-2.258-17.809c.109-2.352 1.922-3.277 2.469-3.504.547-.23 2.484-.852 4.227.746l26.227 24.004a4.01 4.01 0 0 0 3.847.886l39.044-11.585L288 174.23l-2.03-3.61a15.49 15.49 0 0 1 2.944-18.924h-4.25c-4.422 0-8-3.582-8-8s3.578-8 8-8h19.586l10.328-7.641c3.555-2.629 8.578-1.871 11.188 1.676 2.207 2.98 2.029 6.975-.177 9.74L336 136h10.375l2.335 3.203-20.477-28.086c-2.609-3.57-1.82-8.578 1.75-11.18 3.57-2.605 8.57-1.813 11.172 1.75l20.477 28.086a7.96 7.96 0 0 1 1.389 6.214l15.901-4.383a32 32 0 0 0 19.581-15.51l19.937-36.5a241.173 241.173 0 0 0-45.422-39.314c-29.184-19.477-62.876-32.735-99.191-37.861l-.017.027z" transform="rotate(-7.442 1162.574 -416.15) scale(.06834)"/><path fill="#0bb" d="M115.813 98.949l7.93 4.867-4.422 19.898c-.953 4.313 1.766 8.586 6.078 9.543a7.818 7.818 0 0 0 1.742.191c3.664 0 6.977-2.535 7.805-6.266l5.656-25.465a8.012 8.012 0 0 0-3.625-8.551l-12.789-7.852c-3.766-2.324-8.688-1.141-11.008 2.629-2.313 3.768-1.133 8.698 2.633 11.006z" transform="rotate(-7.442 1162.574 -416.15) scale(.06834)"/><path fill="#0bb" d="M159.377 195.328c32.975-87.409 115.511-150.499 213.349-155.027-1.362-.907-2.684-1.87-4.065-2.75a239.584 239.584 0 0 0-16.299-9.48c-1.804-.959-3.603-1.923-5.434-2.837-3.972-1.981-8.024-3.822-12.118-5.586-1.616-.697-3.208-1.436-4.843-2.098-4.896-1.982-9.885-3.78-14.935-5.442-.888-.293-1.751-.64-2.644-.922a238.437 238.437 0 0 0-38.16-8.692c-.139-.02-.28-.027-.419-.047l-13.388 21.808a3.962 3.962 0 0 1-2.422 1.926 4.028 4.028 0 0 1-3.078-.387l-35.07-20.199a4.001 4.001 0 0 0-4.508.352L165.25 46.348c-8.523 6.871-13.406 17.082-13.406 28.02v10.965c0 1.195.531 2.328 1.461 3.09a4.034 4.034 0 0 0 3.313.836l35.555-6.977-5.476 9.551a19.716 19.716 0 0 1-5.297 6.02l-31.805 24.004a3.982 3.982 0 0 0-1.594 3.191v18.906l-10.656 1.133c-10.586 1.121-18.43 10.328-17.859 20.957l.578 10.691a19.983 19.983 0 0 0 14.609 18.199l10.867 3.023 13.837-2.629zM107.831 294.822a60.01 60.01 0 0 1-.02-19.851 59.94 59.94 0 0 0 8.248 41.586 59.888 59.888 0 0 1-8.228-21.735z" transform="rotate(-7.442 1162.574 -416.15) scale(.06834)"/><path fill="#ffedb9" d="M113.719 257.233l-.001.001 12.259-23.644zM378.922 131.604l-15.901 4.383-.045.013c-.325 1.676-1.147 3.262-2.486 4.462a7.968 7.968 0 0 1-5.31 2.026 7.99 7.99 0 0 1-6.469-3.285L346.375 136H336l-10.412 3.47-.261.087c-.395.468-.719.984-1.233 1.364l-12.453 9.207a7.997 7.997 0 0 1-4.753 1.566H288.915a15.49 15.49 0 0 0-2.944 18.924l2.03 3.61 21.523-6.386a17.661 17.661 0 0 1 4.391 11.551 17.616 17.616 0 0 1-5.797 13.117l-6.18 5.582-36.952 12.354-7.4 2.474-6.506-4.307-20.541-13.599c-7.273-4.813-15.664-7.316-24.234-7.316-2.563 0-5.141.227-7.703.68l-37.273 6.578-1.951.371-13.838 2.629 13.901-2.641A239.289 239.289 0 0 0 144 280c0 21.739 2.954 42.774 8.373 62.797-8.571-.123-16.805-3.276-23.216-8.871a36.013 36.013 0 0 0 11.741 6.888 35.946 35.946 0 0 0 18.314 1.504l8.221-1.467 15.068-22.602a32 32 0 0 1 26.625-14.25h93.748a31.998 31.998 0 0 0 26.622-14.245l.877-1.315a15.999 15.999 0 0 1 15.663-6.948l34.502 5.129L320 208l14.517 4.839a32.003 32.003 0 0 1 15.481 11.158l37.037 49.383c2.715 3.619 7.888 4.27 11.413 1.435l22.887-18.405a27.98 27.98 0 0 0 11.328-22.485V212.176a4 4 0 0 0-1.656-3.242 3.956 3.956 0 0 0-3.602-.555l-8.898 2.945c-3.25 1.074-6.688.742-9.672-.945-2.984-1.691-5.047-4.461-5.805-7.809l-3.594-15.977 49.767 15.815-5.092-19.037a56.005 56.005 0 0 1 .474-30.611l7.524-24.997.012-.039a240.485 240.485 0 0 0-4.949-8.822 240.49 240.49 0 0 0-8.612-13.64c-6.127-9.022-12.829-17.621-20.102-25.705l-.018.034-19.937 36.5a31.99 31.99 0 0 1-19.581 15.513zM107.831 294.822z" transform="rotate(-7.442 1162.574 -416.15) scale(.06834)"/><path fill="#ffd586" d="M152.373 342.797C146.954 322.774 144 301.739 144 280a239.3 239.3 0 0 1 15.44-84.684l-13.901 2.641c-11.898 3.621-20.023 14.641-19.742 27.387l.18 8.246-12.258 23.644-.021.043a59.908 59.908 0 0 0-5.367 14.95c-.013.059-.028.117-.04.176-.088.414-.164.83-.243 1.246-.046.241-.098.481-.14.723-.035.2-.063.4-.096.6a60.037 60.037 0 0 0 .02 19.851 59.888 59.888 0 0 0 9.341 23.455l5.82 8.667c.459.684.943 1.343 1.443 1.987.18.232.37.454.556.681.322.395.647.786.984 1.165.25.28.505.553.763.825a36.454 36.454 0 0 0 1.805 1.781c.202.185.409.363.614.543 6.41 5.594 14.644 8.747 23.215 8.87z" transform="rotate(-7.442 1162.574 -416.15) scale(.06834)"/></g><g id="e" transform="matrix(.09183 -.0086 .0086 .09183 224.287 226.695)"><path fill="none" d="M343.495 285.792c14.366-9.953 27.601-19.937 39.64-29.792-12.039-9.855-25.274-19.839-39.64-29.792.332 9.64.505 19.57.505 29.792s-.173 20.151-.505 29.792zM209.617 424.041c.199.01.396.03.595.044.333.023.667.043.998.076.251.025.499.061.748.092.272.034.546.063.817.104.281.042.557.095.835.144.235.042.47.079.703.126.301.06.599.131.897.2.203.047.408.09.61.141.321.081.637.171.954.261.174.049.348.095.521.148.336.102.667.213.999.326.148.05.297.098.443.15.35.125.696.259 1.041.395.121.048.244.094.364.144.362.148.719.306 1.074.467.099.045.198.088.297.134.371.173.737.355 1.101.542l.231.118c.379.199.752.406 1.122.619.057.033.115.065.171.099.384.224.761.457 1.135.697l.119.076c.385.25.764.508 1.137.773l.079.056c.383.274.76.557 1.13.848l.043.034c.379.299.751.605 1.116.92l.015.013C235.698 437.655 240 446.322 240 456c0 8.855-3.598 16.87-9.411 22.664C238.874 489.933 247.556 496 256 496c22.539 0 46.779-43.186 60.597-113.392-18.895-7.104-39.146-15.954-60.597-26.678-21.452 10.724-41.702 19.574-60.598 26.678 2.98 15.139 6.443 29.022 10.27 41.486.77-.055 1.544-.093 2.327-.093.543-.001 1.082.013 1.618.04zM300 179.79a866.828 866.828 0 0 1 25.548 15.333c-1.437-17.417-3.466-33.872-5.981-49.225-14.553 5.498-29.818 11.969-45.621 19.433A866.836 866.836 0 0 1 300 179.79zM256 337.874a758.944 758.944 0 0 0 36-19.521 758.948 758.948 0 0 0 34.905-21.417A759.43 759.43 0 0 0 328 256c0-14.093-.383-27.751-1.094-40.937a759.827 759.827 0 0 0-34.905-21.417 760.76 760.76 0 0 0-36-19.521 759.775 759.775 0 0 0-36 19.521 758.992 758.992 0 0 0-34.906 21.417A758.438 758.438 0 0 0 184 256c0 14.093.382 27.751 1.094 40.937A759.33 759.33 0 0 0 220 318.354a758.831 758.831 0 0 0 36 19.52zM256 208c26.51 0 48 21.49 48 48s-21.49 48-48 48-48-21.49-48-48 21.49-48 48-48zM392 152a31.842 31.842 0 0 1-17.336-5.109l-.123-.079a31.773 31.773 0 0 1-1.032-.704l-.182-.129a31.705 31.705 0 0 1-.956-.716l-.217-.17c-.302-.24-.601-.484-.894-.734-.078-.066-.155-.134-.232-.201a31.93 31.93 0 0 1-.845-.758l-.232-.221a31.59 31.59 0 0 1-.806-.79l-.217-.227a32.277 32.277 0 0 1-.779-.834c-.057-.063-.111-.13-.168-.194a32.338 32.338 0 0 1-.783-.916l-.007-.009a32.19 32.19 0 0 1-2.278-3.176c-.069-.109-.141-.216-.209-.326-.156-.254-.302-.513-.451-.771-.1-.174-.203-.347-.3-.523-.131-.238-.255-.481-.381-.723-.105-.203-.211-.405-.312-.61-.114-.232-.221-.466-.33-.701-.102-.222-.205-.443-.302-.668-.1-.23-.194-.462-.289-.694l-.042-.101c-8.603 2.342-17.604 5.106-26.953 8.3 3.295 19.916 5.756 41.878 7.195 65.818 20.013 13.216 37.803 26.328 53.403 39.14 53.891-47.07 79.171-89.655 67.902-109.175-5.363-9.289-19.394-14.019-39.919-13.937C422.862 138.774 408.979 152 392 152zM65.617 168.041c.2.01.396.03.595.044.333.023.667.043.997.076.251.025.499.061.748.092.272.034.546.063.817.104.28.042.557.095.835.144.234.042.47.079.703.126.301.06.599.131.897.2.203.047.408.09.61.141.32.08.635.171.951.26.175.05.351.096.525.149.336.102.667.213.998.326.147.05.296.098.443.15.349.124.693.258 1.037.394.123.049.248.095.37.146.362.149.719.306 1.073.467.098.045.197.088.294.133.371.173.737.355 1.1.542.078.04.156.079.233.12.377.198.75.405 1.118.617l.176.101c.382.224.759.456 1.131.695l.123.079c.384.249.762.507 1.134.772l.08.057c.383.274.759.556 1.129.847l.044.035c.379.298.75.604 1.115.919l.017.015c.371.321.734.649 1.09.986 6.155 5.832 10 14.077 10 23.226 0 7.434-2.542 14.27-6.795 19.703 7.944 8.261 16.909 16.79 26.85 25.473 15.6-12.812 33.39-25.924 53.403-39.14 1.439-23.939 3.899-45.902 7.195-65.818C108.944 117.081 59.424 116.48 48.154 136c-4.611 7.987-3.093 19.841 3.989 34.279a31.89 31.89 0 0 1 13.474-2.238zM316.597 129.392C302.779 59.186 278.539 16 256 16c-22.54 0-46.779 43.186-60.598 113.392 18.895 7.104 39.146 15.954 60.598 26.678 21.452-10.723 41.702-19.574 60.597-26.678zM168 256c0-10.222.173-20.151.505-29.792-14.365 9.953-27.601 19.937-39.64 29.792 12.039 9.855 25.274 19.839 39.64 29.792A865.71 865.71 0 0 1 168 256zM238.053 165.331c-15.802-7.464-31.067-13.935-45.621-19.433-2.515 15.353-4.544 31.808-5.981 49.225a868.137 868.137 0 0 1 25.548-15.333 868.07 868.07 0 0 1 26.054-14.459zM395.944 266.825c-15.6 12.812-33.39 25.924-53.403 39.14-1.439 23.939-3.899 45.902-7.195 65.818 67.709 23.136 117.229 23.737 128.499 4.217 11.271-19.52-14.01-62.105-67.901-109.175zM186.452 316.877c1.437 17.417 3.466 33.872 5.981 49.225 14.553-5.498 29.818-11.969 45.62-19.433A868.042 868.042 0 0 1 212 332.21a866.828 866.828 0 0 1-25.548-15.333zM300 332.21a868.042 868.042 0 0 1-26.053 14.459c15.802 7.464 31.067 13.935 45.621 19.433 2.515-15.353 4.544-31.808 5.981-49.225A868.212 868.212 0 0 1 300 332.21zM116.056 266.825C62.165 313.895 36.884 356.48 48.154 376c11.27 19.52 60.79 18.919 128.499-4.217-3.296-19.916-5.756-41.878-7.195-65.818-20.013-13.216-37.803-26.328-53.402-39.14z"/><path d="M408.689 256c62.099-54.576 83.729-102.512 69.014-128-8.123-14.07-27.717-21.96-56.806-21.759A31.888 31.888 0 0 1 424 120c0 .694-.03 1.38-.073 2.063 20.525-.083 34.556 4.647 39.919 13.937 11.27 19.52-14.011 62.105-67.902 109.175-15.6-12.812-33.39-25.924-53.403-39.14-1.439-23.939-3.899-45.902-7.195-65.818 9.35-3.195 18.35-5.959 26.953-8.3a31.875 31.875 0 0 1-.955-2.733 30.094 30.094 0 0 1-.221-.78 31.29 31.29 0 0 1-.18-.685 31.42 31.42 0 0 1-.189-.819c-.05-.225-.1-.449-.144-.675-.057-.286-.105-.574-.154-.863-.037-.219-.076-.438-.109-.658a31.075 31.075 0 0 1-.117-.924c-.024-.207-.053-.413-.073-.622a29.857 29.857 0 0 1-.079-1.042c-.011-.176-.028-.349-.037-.526a32.32 32.32 0 0 1 .302-6.254c-8.917 2.336-18.254 5.136-27.998 8.432C316.13 42.7 285.43 0 256 0c-29.431 0-60.13 42.7-76.344 123.768C101.342 97.276 49.013 102.512 34.297 128c-7.198 12.468-5.687 30.312 4.989 51.672a32.078 32.078 0 0 1 12.857-9.393c-7.082-14.437-8.6-26.292-3.989-34.279 11.27-19.52 60.79-18.919 128.499 4.217-3.296 19.916-5.756 41.878-7.195 65.818-20.013 13.216-37.803 26.328-53.403 39.14-9.941-8.683-18.907-17.212-26.85-25.473a32.075 32.075 0 0 1-13.263 9.985c8.041 8.544 17.159 17.338 27.369 26.312-62.099 54.576-83.729 102.512-69.014 128 14.715 25.488 67.044 30.724 145.358 4.232 3.016 15.081 6.532 28.838 10.45 41.235a31.824 31.824 0 0 1 15.567-5.374c-3.828-12.463-7.291-26.347-10.27-41.486 18.895-7.104 39.146-15.954 60.598-26.678 21.452 10.724 41.702 19.574 60.597 26.678C302.779 452.814 278.539 496 256 496c-8.444 0-17.126-6.066-25.411-17.336a31.983 31.983 0 0 1-13.486 8.015C229.38 503.423 242.817 512 256 512c29.43 0 60.13-42.7 76.344-123.768 78.313 26.491 130.643 21.255 145.358-4.232 14.716-25.488-6.914-73.424-69.013-128zm-25.554 0c-12.039 9.855-25.274 19.839-39.64 29.792.332-9.641.505-19.57.505-29.792s-.173-20.151-.505-29.792c14.366 9.953 27.601 19.937 39.64 29.792zM184 256c0-14.093.382-27.751 1.094-40.937A759.33 759.33 0 0 1 220 193.646a759.775 759.775 0 0 1 36-19.521 760.76 760.76 0 0 1 36 19.521 758.948 758.948 0 0 1 34.905 21.417A759.467 759.467 0 0 1 328 256c0 14.093-.383 27.751-1.094 40.937a759.827 759.827 0 0 1-34.905 21.417 760.76 760.76 0 0 1-36 19.521 757.964 757.964 0 0 1-36-19.521 758.992 758.992 0 0 1-34.906-21.417A758.466 758.466 0 0 1 184 256zm141.548-60.877A868.137 868.137 0 0 0 300 179.79a868.042 868.042 0 0 0-26.053-14.459c15.802-7.464 31.067-13.935 45.621-19.433 2.515 15.353 4.543 31.807 5.98 49.225zM256 16c22.539 0 46.779 43.186 60.597 113.392-18.895 7.104-39.146 15.954-60.597 26.678-21.452-10.724-41.702-19.574-60.598-26.678C209.221 59.186 233.46 16 256 16zm-63.568 129.898c14.553 5.498 29.818 11.969 45.621 19.433A866.809 866.809 0 0 0 212 179.79a866.828 866.828 0 0 0-25.548 15.333c1.436-17.418 3.465-33.872 5.98-49.225zm-23.927 80.31c-.332 9.64-.505 19.57-.505 29.792s.173 20.151.505 29.792c-14.365-9.953-27.601-19.937-39.64-29.792 12.038-9.855 25.274-19.839 39.64-29.792zM48.154 376c-11.27-19.52 14.011-62.105 67.902-109.175 15.6 12.812 33.39 25.924 53.403 39.14 1.439 23.939 3.899 45.902 7.195 65.818-67.71 23.135-117.23 23.736-128.5 4.217zm144.278-9.898c-2.515-15.353-4.544-31.808-5.981-49.225a868.137 868.137 0 0 0 25.548 15.333 866.809 866.809 0 0 0 26.053 14.459c-15.801 7.464-31.066 13.935-45.62 19.433zm81.515-19.433A866.809 866.809 0 0 0 300 332.21a866.828 866.828 0 0 0 25.548-15.333c-1.437 17.417-3.466 33.872-5.981 49.225-14.553-5.498-29.818-11.969-45.62-19.433zM463.846 376c-11.27 19.52-60.79 18.919-128.499-4.217 3.296-19.916 5.756-41.878 7.195-65.818 20.013-13.216 37.803-26.328 53.403-39.14 53.89 47.07 79.171 89.655 67.901 109.175z"/><circle cx="256" cy="256" r="48" fill="#ffcf00"/><path fill="#ffedb9" d="M240 456c0-9.678-4.302-18.345-11.091-24.213.371.321.735.65 1.091.987a32.242 32.242 0 0 0-3.866-.241c-17.673 0-32 14.327-32 32 0 9.149 3.845 17.394 10 23.226a31.823 31.823 0 0 1-12.323-4.16 31.846 31.846 0 0 0 16.189 4.4 31.973 31.973 0 0 0 22.589-9.337C236.402 472.87 240 464.855 240 456z"/><path fill="#ffd586" d="M194.133 464.533c0-17.673 14.327-32 32-32 1.31 0 2.598.088 3.866.241-.356-.337-.72-.666-1.091-.987l-.015-.013a31.666 31.666 0 0 0-1.116-.92l-.043-.034c-.37-.291-.747-.573-1.13-.848l-.079-.056a30.29 30.29 0 0 0-1.137-.773l-.119-.076c-.373-.24-.751-.472-1.135-.697l-.171-.099c-.37-.214-.743-.42-1.122-.619-.076-.04-.154-.079-.231-.118-.363-.187-.73-.369-1.101-.542-.098-.046-.198-.089-.297-.134a31.076 31.076 0 0 0-1.074-.467c-.121-.05-.243-.095-.364-.144-.344-.137-.69-.271-1.041-.395-.147-.052-.296-.1-.443-.15a30.655 30.655 0 0 0-.999-.326c-.172-.052-.347-.098-.521-.148-.317-.09-.633-.181-.954-.261-.202-.051-.406-.094-.61-.141-.298-.069-.596-.14-.897-.2-.233-.047-.469-.084-.703-.126-.278-.049-.555-.102-.835-.144-.27-.041-.544-.07-.817-.104-.25-.031-.497-.067-.748-.092-.33-.033-.664-.053-.998-.076-.198-.014-.395-.034-.595-.044A33.076 33.076 0 0 0 208 424c-.784 0-1.558.038-2.327.093a31.814 31.814 0 0 0-15.567 5.374C181.595 435.218 176 444.955 176 456c0 .533.014 1.062.04 1.589.009.176.026.35.037.525.023.349.045.697.079 1.042.021.208.049.415.073.622.036.309.072.618.117.924.032.221.072.439.109.659.049.288.098.577.154.863.045.226.095.451.144.675.06.274.122.548.189.819a32.851 32.851 0 0 0 .402 1.465 30.645 30.645 0 0 0 .467 1.434 31.477 31.477 0 0 0 .819 2.093c.097.224.199.444.301.665.109.236.217.472.331.705.101.204.206.405.311.607.125.243.25.486.381.725.097.176.2.349.301.523.149.258.295.518.451.771.067.11.14.217.209.326a32.094 32.094 0 0 0 2.279 3.177l.006.008c.255.313.519.617.786.92.055.063.108.127.164.189.255.285.518.563.783.838.071.074.141.15.213.223.264.269.534.531.807.791l.231.221c.277.258.56.51.846.759.077.067.153.134.231.2.294.25.592.495.895.734l.217.171c.314.244.633.483.956.716l.181.128c.34.241.684.477 1.034.705l.12.077c.373.241.751.476 1.135.701l.013.008a31.812 31.812 0 0 0 12.323 4.16c-6.156-5.831-10.002-14.076-10.002-23.225z"/><path fill="#708aff" d="M410.133 96.533c-17.673 0-32 14.327-32 32 0 9.149 3.845 17.394 10 23.226a31.8 31.8 0 0 1-12.321-4.159A31.842 31.842 0 0 0 392 152c16.979 0 30.862-13.226 31.927-29.937.043-.683.073-1.369.073-2.063a31.86 31.86 0 0 0-3.104-13.759A32.09 32.09 0 0 0 414 96.775a32.052 32.052 0 0 0-3.867-.242z"/><path fill="#3d6edd" d="M360.04 121.589c.009.176.025.35.037.526.023.349.046.697.079 1.042.021.208.049.414.073.622.036.309.072.618.117.924.032.221.072.439.109.658.049.289.098.577.154.863.044.226.094.451.144.675.06.274.122.548.189.819.057.229.118.457.18.685a33.243 33.243 0 0 0 .436 1.469 31.029 31.029 0 0 0 .503 1.436c.077.204.156.406.237.608l.042.101c.094.232.189.464.289.694.097.224.2.446.302.668.108.235.216.47.33.701.101.205.207.407.312.61.125.242.249.485.381.723.097.176.2.349.3.523.149.258.295.518.451.771.068.11.14.217.209.326a32.071 32.071 0 0 0 2.278 3.176l.007.009c.254.311.517.615.783.916.056.064.111.13.168.194.254.284.515.56.779.834.073.075.143.153.217.227.263.268.533.531.806.79l.232.221c.277.258.559.51.845.758.077.067.154.135.232.201a33.187 33.187 0 0 0 2.067 1.62l.182.129c.339.241.683.476 1.032.704l.123.079c.372.24.749.475 1.132.7l.016.009a31.823 31.823 0 0 0 12.321 4.159c-6.155-5.832-10-14.077-10-23.226 0-17.673 14.327-32 32-32 1.31 0 2.598.088 3.866.241-.356-.338-.72-.667-1.092-.988l-.014-.012a30.897 30.897 0 0 0-1.158-.954 33.374 33.374 0 0 0-1.132-.849l-.077-.055a31.568 31.568 0 0 0-2.391-1.547l-.17-.098a31.38 31.38 0 0 0-1.123-.62c-.076-.04-.153-.078-.229-.117a31.24 31.24 0 0 0-1.102-.542c-.098-.046-.198-.089-.297-.134a31.892 31.892 0 0 0-1.073-.467c-.121-.05-.244-.096-.365-.144-.344-.137-.69-.27-1.04-.395-.146-.052-.294-.099-.441-.149a31.525 31.525 0 0 0-1-.326c-.172-.052-.346-.098-.519-.147-.317-.09-.634-.181-.955-.262-.202-.051-.406-.094-.61-.141-.298-.069-.596-.14-.897-.2-.233-.047-.469-.084-.703-.126-.278-.049-.554-.102-.835-.144-.271-.041-.544-.07-.817-.104-.249-.031-.497-.067-.748-.092-.33-.033-.664-.053-.997-.076-.198-.014-.396-.034-.595-.044A32.345 32.345 0 0 0 392 88c-16.088 0-29.399 11.874-31.658 27.335a32.32 32.32 0 0 0-.302 6.254z"/><path fill="#ff7400" d="M89.205 219.702A31.847 31.847 0 0 0 96 200c0-9.149-3.845-17.394-10-23.226a32.242 32.242 0 0 0-3.866-.241c-17.673 0-32 14.327-32 32 0 9.148 3.845 17.394 10 23.226a31.79 31.79 0 0 1-12.318-4.157A31.839 31.839 0 0 0 64 232a31.9 31.9 0 0 0 11.942-2.312 32.08 32.08 0 0 0 13.263-9.986z"/><path fill="#d55a00" d="M50.133 208.533c0-17.673 14.327-32 32-32 1.31 0 2.598.088 3.866.241a30.856 30.856 0 0 0-1.107-1.001 31.8 31.8 0 0 0-2.288-1.801l-.08-.057c-.372-.265-.75-.522-1.134-.772l-.123-.079a32.609 32.609 0 0 0-1.131-.695l-.176-.101a31.096 31.096 0 0 0-1.118-.617c-.077-.041-.156-.08-.233-.12a31.148 31.148 0 0 0-1.1-.542c-.098-.046-.197-.088-.294-.133a34.074 34.074 0 0 0-1.073-.467c-.123-.05-.247-.097-.37-.146a33.046 33.046 0 0 0-1.037-.394c-.146-.052-.295-.1-.443-.15a30.599 30.599 0 0 0-.998-.326c-.174-.053-.35-.099-.525-.149-.316-.09-.631-.18-.951-.26-.202-.051-.407-.094-.61-.141-.298-.069-.596-.14-.897-.2-.233-.047-.469-.084-.703-.126-.278-.049-.555-.102-.835-.144-.271-.041-.544-.07-.817-.104-.25-.031-.497-.067-.748-.092-.33-.033-.664-.053-.997-.076-.199-.014-.396-.034-.595-.044A37.619 37.619 0 0 0 64 168a31.89 31.89 0 0 0-11.857 2.279 32.078 32.078 0 0 0-12.857 9.393 31.865 31.865 0 0 0-7.246 21.917c.009.176.026.35.037.526.023.349.045.697.079 1.042.02.208.049.414.073.622.037.309.072.618.118.924.032.221.072.439.109.659.049.288.098.577.154.863.045.226.095.451.144.675.06.274.122.548.189.819.057.23.118.457.18.685a29.023 29.023 0 0 0 .437 1.469 31.029 31.029 0 0 0 .782 2.145c.094.232.189.464.289.694.097.224.2.446.302.668.108.234.216.469.329.701.101.205.208.407.313.61.125.242.249.485.38.723.097.177.201.349.301.524.148.258.295.516.45.769.069.112.143.221.213.332a32.048 32.048 0 0 0 2.267 3.161l.015.019c.254.311.516.614.781.915.057.064.111.13.168.194.254.283.515.56.779.834l.217.227c.263.268.533.531.806.79l.232.221c.277.258.559.51.845.758.077.067.154.135.232.201.293.25.592.494.894.734l.217.171c.313.244.631.482.954.714l.185.132c.339.24.682.475 1.03.702l.123.079c.372.24.748.474 1.131.699l.021.012a31.823 31.823 0 0 0 12.318 4.157c-6.155-5.832-10.001-14.077-10.001-23.226z"/></g><g id="g"><path fill="none" d="M71.312 339.206a195.891 195.891 0 0 1-1.562-3.229c-.153-.323-.302-.647-.453-.971-.49-1.052-.974-2.108-1.446-3.17-.157-.354-.311-.711-.466-1.066a195.067 195.067 0 0 1-1.352-3.151c-.154-.368-.302-.74-.453-1.109a208.437 208.437 0 0 1-1.279-3.177c-.135-.347-.264-.698-.397-1.046a198.612 198.612 0 0 1-1.244-3.307c-.072-.199-.139-.4-.211-.599a198.323 198.323 0 0 1-3.307-10.038c-10.91 10.607-15.822 19.524-13.269 25.792 2.553 6.267 12.309 9.206 27.524 9.17a206.025 206.025 0 0 1-1.677-3.277c-.137-.273-.272-.548-.408-.822zM455.51 167.246c-2.554-6.269-12.304-9.214-27.527-9.176a198.776 198.776 0 0 1 14.257 34.962c10.904-10.604 15.823-19.521 13.27-25.786z" transform="matrix(.11967 0 0 .11967 53 222)"/><path fill="#708aff" d="M364.025 104.024c-68.087 0-128.217 34.032-164.337 86.005a963.667 963.667 0 0 1 22.429-9.475C292.204 152 358.841 134.363 409.442 129.05 383.248 94.916 346.3 69.477 303.658 57.794c32.131 8.819 61.025 25.462 84.531 47.734-7.927-.955-15.979-1.504-24.164-1.504zM442.191 193.081l.049-.049a198.714 198.714 0 0 0-14.257-34.962c-38.626.097-112.509 19.413-193.649 52.47-20.612 8.397-40.263 17.102-58.575 25.857-7.589 21.124-11.734 43.89-11.734 67.627 0 57.178 24.033 108.712 62.502 145.162-55.619-6.704-104.214-36.219-136.139-78.919.416.558.829 1.118 1.251 1.671 36.542 47.863 94.185 78.753 159.052 78.753 110.457 0 200-89.543 200-200 0-8.11-.496-16.103-1.434-23.96l-.023.018a198.633 198.633 0 0 0-7.043-33.668zM59.143 308.342l-.001.001a198.323 198.323 0 0 0 .001-.001z" transform="matrix(.11967 0 0 .11967 53 222)"/><path fill="#3d6edd" d="M226.527 449.186c-38.469-36.45-62.502-87.984-62.502-145.162 0-23.737 4.145-46.503 11.734-67.627-53.781 25.713-95.958 51.86-116.616 71.945a198.386 198.386 0 0 0 3.306 10.04c.072.199.139.4.211.599.403 1.108.822 2.208 1.244 3.307.134.348.262.698.397 1.046.415 1.065.845 2.122 1.279 3.177.151.369.299.741.453 1.109.441 1.056.894 2.104 1.352 3.151.156.355.309.712.466 1.066.472 1.062.956 2.118 1.446 3.17.151.324.301.648.453.971a195.891 195.891 0 0 0 1.562 3.229l.408.822a194.11 194.11 0 0 0 1.677 3.277l.116.001c3.974 7.587 8.371 14.915 13.225 21.905l.229.329c.468.671.948 1.332 1.424 1.997.567.786 1.133 1.572 1.711 2.349l.286.382c31.925 42.698 80.52 72.213 136.139 78.917zM199.688 190.029c36.12-51.973 96.249-86.005 164.337-86.005 8.185 0 16.237.549 24.165 1.505-23.506-22.272-52.4-38.915-84.531-47.734l-.195-.053a199.874 199.874 0 0 0-4.322-1.129c-.172-.043-.344-.083-.515-.126a195.83 195.83 0 0 0-4.071-.959c-.274-.062-.549-.119-.823-.179-1.272-.28-2.547-.55-3.827-.805-.373-.074-.749-.143-1.123-.215a194.405 194.405 0 0 0-3.594-.665c-.465-.081-.934-.154-1.4-.232a195.893 195.893 0 0 0-3.374-.54c-.559-.083-1.121-.156-1.682-.235-1.047-.147-2.095-.295-3.148-.426-.653-.081-1.309-.15-1.964-.225-.972-.111-1.943-.225-2.92-.323-.752-.075-1.509-.135-2.263-.201-.889-.078-1.777-.162-2.669-.229-.869-.065-1.742-.112-2.614-.166-.789-.049-1.577-.106-2.369-.145-1.041-.052-2.088-.083-3.134-.119-.631-.021-1.259-.054-1.892-.07a203.211 203.211 0 0 0-5.067-.064c-110.457 0-200 89.543-200 200 0 1.664.022 3.323.063 4.978.013.553.04 1.103.058 1.656.036 1.1.072 2.2.125 3.295.032.657.077 1.311.115 1.966.058.985.115 1.97.187 2.951.052.701.114 1.4.173 2.099.078.929.156 1.857.247 2.782.071.726.151 1.449.23 2.173.074.682.143 1.365.224 2.045 35.579-28.141 87.133-58.181 147.573-84.605z" transform="matrix(.11967 0 0 .11967 53 222)"/><path fill="#9dc1ff" d="M499.727 149.232c-7.739-18.997-41.586-25.296-90.284-20.182-50.601 5.313-117.238 22.95-187.325 51.504a963.667 963.667 0 0 0-22.429 9.475c-60.44 26.424-111.994 56.464-147.574 84.606-38.395 30.368-58.196 58.521-50.458 77.514 7.737 18.99 41.593 25.27 90.265 20.166-.095-.124-.187-.252-.282-.377-.422-.553-.835-1.113-1.251-1.671-.095-.128-.192-.254-.286-.382a180.606 180.606 0 0 1-1.711-2.349c-.476-.664-.956-1.326-1.424-1.997l-.229-.329c-4.854-6.989-9.251-14.318-13.225-21.905l-.116-.001h-.001c-15.215.036-24.971-2.903-27.524-9.17-2.553-6.267 2.359-15.184 13.269-25.792l.001-.001c20.658-20.085 62.835-46.232 116.616-71.945 18.312-8.755 37.963-17.46 58.575-25.857 81.14-33.057 155.023-52.373 193.649-52.47 15.223-.038 24.973 2.907 27.527 9.176 2.553 6.266-2.366 15.182-13.27 25.786l-.049.049a198.644 198.644 0 0 1 7.044 33.667l.023-.018c38.378-30.359 58.205-58.508 50.469-77.497z" transform="matrix(.11967 0 0 .11967 53 222)"/></g><g id="i"><path fill="none" d="M448.772 159.125c14.809-43.794 13.635-80.427-7.044-101.105 20.679 20.678 21.853 57.311 7.044 101.105z" transform="rotate(13.17 15.917 1027.179) scale(.11484)"/><path fill="#5c546a" d="M477.729 22.02c-56.681-56.681-205.096-.162-331.494 126.237C301.69 26.208 386.373 32.094 420.799 45.168c6.279 2.178 11.918 5.232 16.835 9.192.077.062.151.128.228.191a51.132 51.132 0 0 1 1.819 1.538 48.975 48.975 0 0 1 2.047 1.93l.001.001c20.678 20.678 21.853 57.311 7.044 101.105-1.819 5.378-3.892 10.87-6.187 16.448-.493 1.198-.995 2.4-1.51 3.607-20.626 48.373-58.534 103.284-109.584 154.334a662.611 662.611 0 0 1-5.735 5.658c-.585.571-1.172 1.134-1.758 1.701a645.915 645.915 0 0 1-6.054 5.787 629.494 629.494 0 0 1-4.093 3.824c-.588.545-1.175 1.093-1.763 1.634a629.698 629.698 0 0 1-11.663 10.46c-.582.509-1.164 1.01-1.746 1.515a617.729 617.729 0 0 1-6.156 5.272 619.501 619.501 0 0 1-4.18 3.497c-.583.484-1.167.971-1.75 1.452a583.507 583.507 0 0 1-11.785 9.446c-.568.443-1.135.878-1.702 1.318a574.456 574.456 0 0 1-6.194 4.731 546.058 546.058 0 0 1-4.239 3.156c-.57.421-1.141.845-1.711 1.262a531.727 531.727 0 0 1-11.792 8.385c-.539.372-1.078.737-1.617 1.106a480.057 480.057 0 0 1-10.444 6.963c-.547.355-1.095.714-1.641 1.065a470.642 470.642 0 0 1-5.802 3.677c94.887-57.2 214.697-151.023 258.415-267.47 17.804-54.056 15.805-99.775-10.353-125.933z" transform="rotate(13.17 15.917 1027.179) scale(.11484)"/><path fill="#5c546a" d="M42.234 366.992l.094-.443c.232-1.092.474-2.19.73-3.295l.183-.775c.244-1.034.494-2.07.758-3.114.083-.326.171-.655.255-.983.26-1.004.522-2.01.8-3.023.089-.323.185-.65.276-.974.656-2.342 1.35-4.703 2.104-7.093v-.004l.015-.048.156-.483a90.347 90.347 0 0 1 1.162-3.549c17.77-52.968 59.005-116.492 117.465-174.951 39.73-39.73 81.799-71.501 121.305-93.363C35.723 211.774-36.148 423.606 19.997 479.751c47.452 47.452 159.198 15.527 268.495-70.28-184.956 94.549-232.601 54.07-244.957 14.421-5.675-15.454-5.921-34.884-1.301-56.9z" transform="rotate(13.17 15.917 1027.179) scale(.11484)"/><path fill="#74749b" d="M237.11 410.68a507.256 507.256 0 0 0 6.143-4.048 518.47 518.47 0 0 0 4.301-2.915c.539-.369 1.078-.734 1.617-1.106a531.727 531.727 0 0 0 11.792-8.385c.57-.417 1.14-.841 1.711-1.262a552.702 552.702 0 0 0 6.182-4.625 548.344 548.344 0 0 0 4.251-3.262c.568-.439 1.135-.875 1.702-1.318 3.93-3.067 7.86-6.216 11.785-9.446.584-.48 1.167-.968 1.75-1.452a595.588 595.588 0 0 0 10.336-8.769c.582-.505 1.164-1.006 1.746-1.515a622.564 622.564 0 0 0 11.663-10.46c.589-.541 1.176-1.09 1.763-1.634a656.468 656.468 0 0 0 6.075-5.701 618.777 618.777 0 0 0 4.072-3.91c.586-.567 1.173-1.131 1.758-1.701a648.473 648.473 0 0 0 5.735-5.658c51.05-51.05 88.958-105.961 109.584-154.334a303.058 303.058 0 0 0 1.51-3.607c2.294-5.578 4.368-11.07 6.187-16.448 14.809-43.793 13.635-80.427-7.044-101.105l-.001-.001a51.685 51.685 0 0 0-2.047-1.93 51.296 51.296 0 0 0-1.819-1.538c-.077-.063-.151-.129-.228-.191-4.917-3.96-10.556-7.014-16.835-9.192-31.924-11.076-80.285.41-133.26 29.725-39.506 21.862-81.575 53.633-121.305 93.363-58.459 58.46-99.694 121.985-117.465 174.953a236.005 236.005 0 0 0-1.162 3.549l-.156.483-.016.052a222.974 222.974 0 0 0-2.104 7.093c-.091.324-.187.651-.276.974a191.377 191.377 0 0 0-.8 3.023c-.085.327-.173.656-.255.983a192.324 192.324 0 0 0-.758 3.114l-.183.775a184.126 184.126 0 0 0-.73 3.295l-.094.443c-4.621 22.017-4.374 41.446 1.301 56.9 2.808 7.646 6.931 14.328 12.462 19.859 31.385 31.385 99.526 17.84 173.67-28.329a482.846 482.846 0 0 0 5.802-3.677c.546-.351 1.093-.71 1.64-1.065zm-145.113-2.929c-32.38-32.38 11.602-128.86 98.237-215.495S373.349 61.64 405.729 94.019s-11.602 128.86-98.237 215.495c-86.635 86.635-183.115 130.617-215.495 98.237z" transform="rotate(13.17 15.917 1027.179) scale(.11484)"/><path fill="#ffb293" d="M405.729 94.019c-32.38-32.38-128.86 11.602-215.495 98.237S59.617 375.371 91.997 407.751c32.38 32.38 128.86-11.602 215.495-98.237 86.634-86.635 130.616-183.115 98.237-215.495zM138.296 361.452c-20.355-20.355 12.647-86.358 73.711-147.423s127.068-94.066 147.423-73.711c20.355 20.355-12.647 86.358-73.711 147.423-61.065 61.064-127.068 94.066-147.423 73.711z" transform="rotate(13.17 15.917 1027.179) scale(.11484)"/><path fill="#fff2aa" d="M359.43 140.318c-20.355-20.355-86.358 12.647-147.423 73.711s-94.066 127.068-73.711 147.423c20.355 20.355 86.358-12.647 147.423-73.711 61.064-61.065 94.066-127.068 73.711-147.423zm-95.825 125.31c-32.568 32.568-65.569 52.369-73.711 44.227-8.142-8.142-.354-53.157 32.214-85.725s77.583-40.356 85.725-32.214c8.141 8.142-11.66 41.144-44.228 73.712z" transform="rotate(13.17 15.917 1027.179) scale(.11484)"/><path fill="#fff" d="M222.107 224.13c-32.568 32.568-40.356 77.583-32.214 85.725 8.142 8.142 41.144-11.659 73.711-44.227 32.568-32.568 52.369-65.569 44.227-73.711-8.141-8.143-53.156-.355-85.724 32.213z" transform="rotate(13.17 15.917 1027.179) scale(.11484)"/></g><g id="k"><path fill="#00e389" d="M424.672 280.93c-3.027.245-5.985.551-8.911.884a81.69 81.69 0 0 1 .24 6.186c0 44.109-35.891 80-80 80-21.027 0-41.193-8.324-56.102-22.983A44.249 44.249 0 0 1 256 352v80h32c4.422 0 8 3.578 8 8s-3.578 8-8 8h-32v64c29.625 0 72.719-26.742 109.797-68.133 43.661-48.73 73.781-111.072 85.026-175.805-6.573 7.261-15.795 12.023-26.151 12.868z" transform="translate(57.717 34.717) scale(.09095)"/><path fill="#52798f" d="M224 448c-4.422 0-8-3.578-8-8s3.578-8 8-8h32v-80a44.25 44.25 0 0 1-23.897-6.982C217.193 359.678 197.023 368 176 368c-44.109 0-80-35.891-80-80 0-2.082.084-4.144.24-6.186a274.374 274.374 0 0 0-8.912-.884c-10.354-.844-19.576-5.604-26.148-12.865C87.041 417.096 203.263 512 256 512v-64h-32z" transform="translate(57.717 34.717) scale(.09095)"/><path fill="#ffcf00" d="M183.953 309.094c.028.961.047 1.927.047 2.906 0 22.091-7.164 40-16 40-8.837 0-16-17.909-16-40 0-6.017.535-11.719 1.487-16.838-16.417-6.042-35.454-10.87-57.247-13.349A81.218 81.218 0 0 0 96 288c0 44.109 35.891 80 80 80 21.023 0 41.193-8.322 56.103-22.982a45.327 45.327 0 0 1-7.314-5.807c-8.676-8.503-22.129-19.727-40.836-30.117zM416 288c0-2.082-.084-4.144-.24-6.186-21.793 2.479-40.83 7.306-57.247 13.348.952 5.119 1.487 10.821 1.487 16.838 0 22.091-7.163 40-16 40-8.836 0-16-17.909-16-40 0-.979.019-1.946.047-2.907-18.707 10.389-32.16 21.611-40.835 30.11v.008a45.356 45.356 0 0 1-7.313 5.806C294.807 359.675 314.973 368 336 368c44.109 0 80-35.891 80-80z" transform="translate(57.717 34.717) scale(.09095)"/><path fill="#5c546a" d="M216 440c0 4.422 3.578 8 8 8h64c4.422 0 8-3.578 8-8s-3.578-8-8-8h-64c-4.422 0-8 3.578-8 8z" transform="translate(57.717 34.717) scale(.09095)"/><path fill="#fff" d="M168 352c8.836 0 16-17.909 16-40 0-.978-.019-1.945-.047-2.906-8.938-4.964-19.071-9.737-30.467-13.932C152.535 300.281 152 305.983 152 312c0 22.091 7.163 40 16 40zM344 352c8.837 0 16-17.909 16-40 0-6.017-.535-11.719-1.487-16.838-11.396 4.194-21.529 8.967-30.467 13.931-.027.961-.046 1.928-.046 2.907 0 22.091 7.163 40 16 40z" transform="translate(57.717 34.717) scale(.09095)"/><path fill="#0bb" d="M464 208C464 93.305 370.695 0 256 0v352a44.237 44.237 0 0 0 23.897-6.983 45.368 45.368 0 0 0 7.313-5.806v-.008c8.676-8.499 22.129-19.721 40.835-30.11 8.938-4.964 19.071-9.736 30.467-13.931 16.417-6.042 35.454-10.869 57.247-13.348 2.927-.333 5.885-.639 8.911-.884 10.356-.845 19.579-5.606 26.151-12.867a39.564 39.564 0 0 0 9.755-20.476C462.914 232.695 464 220.117 464 208z" transform="translate(57.717 34.717) scale(.09095)"/><path fill="#00e389" d="M87.328 280.93c3.027.245 5.985.551 8.912.884 21.793 2.479 40.83 7.306 57.247 13.349 11.396 4.194 21.529 8.968 30.467 13.932 18.707 10.39 32.16 21.614 40.836 30.117a45.327 45.327 0 0 0 7.314 5.807A44.251 44.251 0 0 0 256 352V0C141.305 0 48 93.305 48 208c0 12.109 1.086 24.688 3.422 39.578a39.574 39.574 0 0 0 9.759 20.487c6.571 7.26 15.793 12.02 26.147 12.865z" transform="translate(57.717 34.717) scale(.09095)"/></g><g id="m"><path fill="#52798f" d="M263.998 141.006v-17.008c0-4.422-3.578-8-8-8-4.422 0-8 3.578-8 8v17.008a32.066 32.066 0 0 1 8-1.008c2.762 0 5.443.35 8 1.008z" transform="matrix(.11719 0 0 .11719 138 129)"/><path fill="#5c546a" d="M255.998 163.998H286.99c-2.894-11.245-11.747-20.098-22.992-22.992a32.066 32.066 0 0 0-8-1.008c-2.762 0-5.443.35-8 1.008-11.245 2.894-20.098 11.747-22.992 22.992H255.998z" transform="matrix(.11719 0 0 .11719 138 129)"/><path fill="#00e389" d="M380.279 259.998l-52.125-78.187a39.912 39.912 0 0 0-33.281-17.812h-1.109l31.997 96h54.518zM277.748 166.529c-.28-.841-.313-1.691-.312-2.531h-21.438v96h52.904l-31.154-93.469z" transform="matrix(.11719 0 0 .11719 138 129)"/><path fill="#0bb" d="M218.233 163.998h-1.109a39.912 39.912 0 0 0-33.281 17.812l-52.125 78.187h54.518l31.997-95.999zM255.998 163.998H234.56c0 .84-.032 1.69-.312 2.531l-31.154 93.469h52.904v-96zM277.748 166.529l31.154 93.469h16.859l-31.997-96h-16.328c0 .84.032 1.69.312 2.531z" transform="matrix(.11719 0 0 .11719 138 129)"/><path fill="#52798f" d="M203.094 259.998l31.154-93.469c.28-.841.313-1.691.312-2.531h-16.328l-31.998 96h16.86z" transform="matrix(.11719 0 0 .11719 138 129)"/><path fill="#5c546a" d="M127.998 347.998a8.032 8.032 0 0 1-2.063-.273l-2.466-.657 33.583 40.29a23.929 23.929 0 0 0 18.438 8.641h80.508v-48h-128z" transform="matrix(.11719 0 0 .11719 138 129)"/><path fill="#52798f" d="M383.998 347.998h-128v48h80.508a23.945 23.945 0 0 0 18.438-8.633l33.583-40.298-2.466.658a8.032 8.032 0 0 1-2.063.273z" transform="matrix(.11719 0 0 .11719 138 129)"/><path fill="#e3e6e9" d="M511.224 304.568c-.867-1.82-22.195-44.57-111.227-44.57h-144v48h255.989a7.973 7.973 0 0 1-.731 3.359 7.995 7.995 0 0 0-.031-6.789z" transform="matrix(.11719 0 0 .11719 138 129)"/><path fill="#b6b8be" d="M255.998 307.998v-48h-144c-89.031 0-110.359 42.75-111.227 44.57a7.999 7.999 0 0 0-.031 6.789 7.973 7.973 0 0 1-.731-3.359h255.989z" transform="matrix(.11719 0 0 .11719 138 129)"/><path fill="#888693" d="M127.998 347.998h128v-40H.009a7.965 7.965 0 0 0 5.926 7.726l117.534 31.343 2.466.657c.673.18 1.368.274 2.063.274z" transform="matrix(.11719 0 0 .11719 138 129)"/><path fill="#b6b8be" d="M255.998 307.998v40h128c.695 0 1.391-.094 2.063-.273l2.466-.658 117.534-31.342a7.965 7.965 0 0 0 5.926-7.726H255.998z" transform="matrix(.11719 0 0 .11719 138 129)"/></g><g id="o"><path fill="#fff294" d="M296 208c4.422 0 8 3.578 8 8h17.743c6.648-12.4 16.944-23.564 31.622-32H244c-6.627 0-12 5.373-12 12s5.373 12 12 12h52zM327.632 305.89l-.043-.056a72.893 72.893 0 0 1-1.146-1.55l-.168-.234c-.352-.493-.698-.99-1.039-1.493-.073-.107-.144-.215-.216-.323a71.74 71.74 0 0 1-.972-1.488l-.206-.331a68.81 68.81 0 0 1-.948-1.549l-.076-.131a73.175 73.175 0 0 1-1.531-2.737H304c0 4.422-3.578 8-8 8h-52c-6.627 0-12 5.373-12 12s5.373 12 12 12h109.796c-10.225-5.652-19.185-12.952-26.164-22.108zM240.802 264H164c-6.627 0-12 5.373-12 12s5.373 12 12 12h91.999c-7.68-5.77-13.216-14.239-15.197-24zM255.999 224H164c-6.627 0-12 5.373-12 12s5.373 12 12 12h76.802c1.981-9.761 7.517-18.23 15.197-24z" transform="matrix(.09605 -.0628 .0628 .09605 128.335 244.489)"/><path fill="#fff" d="M319.805 293.071c-.198-.416-.389-.839-.58-1.261-.132-.29-.265-.58-.393-.873a75.16 75.16 0 0 1-.508-1.195c-.138-.33-.275-.661-.409-.995a73.617 73.617 0 0 1-.857-2.246 80.813 80.813 0 0 1-.407-1.141 73.554 73.554 0 0 1-.394-1.175c-.121-.367-.242-.734-.358-1.105-.135-.433-.263-.872-.392-1.311-.1-.342-.204-.682-.3-1.027a78.534 78.534 0 0 1-.441-1.671c-.062-.242-.129-.479-.189-.723a84.685 84.685 0 0 1-.553-2.409c-.061-.286-.115-.578-.174-.865a90.75 90.75 0 0 1-.324-1.649c-.062-.338-.118-.681-.176-1.022a82.124 82.124 0 0 1-.254-1.55c-.055-.359-.105-.722-.156-1.084a92.208 92.208 0 0 1-.717-7.04c-.023-.359-.049-.717-.068-1.08-.033-.618-.057-1.244-.08-1.87-.011-.31-.027-.617-.035-.929-.025-.942-.04-1.891-.04-2.851 0-13.559 2.996-27.414 9.743-40H304c0 4.422-3.578 8-8 8h-40.001c-7.68 5.77-13.216 14.239-15.198 24H272c4.422 0 8 3.578 8 8s-3.578 8-8 8h-31.198c1.982 9.761 7.517 18.23 15.198 24h40c4.422 0 8 3.578 8 8h17.287c-.406-.762-.8-1.535-1.182-2.318-.099-.203-.202-.404-.3-.61z" transform="matrix(.09605 -.0628 .0628 .09605 128.335 244.489)"/><path fill="#ffcf00" d="M244 328h-36c-4.422 0-8 3.578-8 8s3.578 8 8 8h208c.459 0 .906-.047 1.344-.121-22.42-.793-45.044-5.647-63.548-15.879H244zM417.265 168.109A8.106 8.106 0 0 0 416 168H208c-4.422 0-8 3.578-8 8 0 4.422 3.578 8 8 8h145.365c15.868-9.121 36.858-15.048 63.9-15.891z" transform="matrix(.09605 -.0628 .0628 .09605 128.335 244.489)"/><path fill="#ff9300" d="M168 184h8c4.422 0 8-3.578 8-8 0-4.422-3.578-8-8-8h-8c-4.422 0-8 3.578-8 8 0 4.422 3.578 8 8 8zM176 328h-8c-4.422 0-8 3.578-8 8s3.578 8 8 8h8c4.422 0 8-3.578 8-8s-3.578-8-8-8z" transform="matrix(.09605 -.0628 .0628 .09605 128.335 244.489)"/><path fill="#ffcf00" d="M8 248zM0 256zM272 264c4.422 0 8-3.578 8-8s-3.578-8-8-8H80a8 8 0 0 1 0 16H272z" transform="matrix(.09605 -.0628 .0628 .09605 128.335 244.489)"/><path fill="#ff9300" d="M88 224h16c4.422 0 8-3.578 8-8s-3.578-8-8-8H88c-4.422 0-8 3.578-8 8s3.578 8 8 8z" transform="matrix(.09605 -.0628 .0628 .09605 128.335 244.489)"/><path fill="#ffcf00" d="M296 224c4.422 0 8-3.578 8-8s-3.578-8-8-8H136c-4.422 0-8 3.578-8 8s3.578 8 8 8h160z" transform="matrix(.09605 -.0628 .0628 .09605 128.335 244.489)"/><path fill="#ff9300" d="M104 288H88c-4.422 0-8 3.578-8 8 0 4.422 3.578 8 8 8h16c4.422 0 8-3.578 8-8 0-4.422-3.578-8-8-8z" transform="matrix(.09605 -.0628 .0628 .09605 128.335 244.489)"/><path fill="#ffcf00" d="M296 304c4.422 0 8-3.578 8-8 0-4.422-3.578-8-8-8H136c-4.422 0-8 3.578-8 8 0 4.422 3.578 8 8 8h160z" transform="matrix(.09605 -.0628 .0628 .09605 128.335 244.489)"/><path fill="#d49e6c" d="M431.935 168.362c17.647 1.594 33.791 8.443 46.905 18.932-1.714-.126-3.418-.293-5.16-.293-73.494 0-99.68 45.461-99.68 88 0 32.22 12.714 54.121 31.4 68.026-30.733-3.133-60.401-14.37-77.768-37.135 6.979 9.156 15.939 16.456 26.164 22.109 18.504 10.232 41.128 15.086 63.548 15.879 2.222.079 4.442.121 6.656.121 48.523 0 88-39.477 88-88 0-45.85-35.247-83.614-80.065-87.639zM320.105 293.682a73.175 73.175 0 0 0 0 0z" transform="matrix(.09605 -.0628 .0628 .09605 128.335 244.489)"/><path fill="#ff9300" d="M88 256a8 8 0 0 0-8-8H8a8 8 0 0 0 0 16h72a8 8 0 0 0 8-8z" transform="matrix(.09605 -.0628 .0628 .09605 128.335 244.489)"/><path fill="#b68052" d="M321.743 216c-6.747 12.586-9.743 26.44-9.743 40 0 .96.015 1.909.04 2.851.008.312.024.619.035.929.022.626.046 1.252.08 1.87.02.362.045.72.068 1.08.036.56.075 1.119.12 1.672.031.374.065.745.1 1.116a89.888 89.888 0 0 0 .497 4.252c.051.362.101.725.156 1.084.08.521.166 1.036.254 1.55.058.341.114.684.176 1.022.102.555.212 1.102.324 1.649.059.288.113.58.174.865.174.811.358 1.615.553 2.409.06.243.127.481.189.723.143.56.287 1.119.441 1.671.096.345.2.685.3 1.027.129.439.257.878.392 1.311.116.371.237.738.358 1.105.129.393.259.786.394 1.175a76.564 76.564 0 0 0 .811 2.225c.149.389.299.777.453 1.162.134.334.271.665.409.995.167.4.334.8.508 1.195.128.293.262.582.393.873.191.422.382.845.58 1.261.098.205.201.407.3.611a73.181 73.181 0 0 0 2.713 5.055l.076.131c.309.522.627 1.037.948 1.549.069.11.136.221.206.331.318.501.643.997.972 1.488.072.107.143.216.216.323.341.503.687 1 1.039 1.493l.168.234c.376.522.758 1.04 1.146 1.55l.043.056c17.368 22.765 47.036 34.003 77.768 37.135C386.714 329.121 374 307.22 374 275c0-42.539 26.186-88 99.68-88 1.742 0 3.446.167 5.16.293-13.114-10.489-29.258-17.338-46.905-18.932a89.414 89.414 0 0 0-3.869-.264c-.177-.008-.355-.013-.532-.02A88.197 88.197 0 0 0 424 168c-2.288 0-4.528.041-6.735.109-27.042.843-48.032 6.77-63.9 15.891-14.678 8.436-24.974 19.6-31.622 32z" transform="matrix(.09605 -.0628 .0628 .09605 128.335 244.489)"/></g><g id="q"><path fill="#5c546a" d="M390.288 84.418a218.168 218.168 0 0 1 23.511 23.587c46.514 39.782 76.005 98.892 76.005 164.897 0 31.53-6.735 61.485-18.833 88.516 17.156-33.793 26.833-72.023 26.833-112.516C497.805 111.437 386.367 0 248.902 0c-51.798 0-99.895 15.828-139.733 42.903 33.681-21.523 73.7-34.001 116.635-34.001 65.776 0 124.706 29.283 164.484 75.516zM108.005 413.8a218.35 218.35 0 0 1-23.587-23.511C38.185 350.51 8.902 291.58 8.902 225.805c0-42.935 12.478-82.954 34.001-116.635C15.828 149.007 0 197.105 0 248.902c0 137.465 111.437 248.902 248.902 248.902 40.493 0 78.723-9.677 112.516-26.833-27.03 12.098-56.985 18.833-88.516 18.833-66.005.001-125.115-29.49-164.897-76.004z" transform="matrix(.10544 0 0 .10544 144.75 30.75)"/><path fill="#5dcfbc" d="M84.418 390.288C51.751 352.319 32 302.919 32 248.902c0-45.309 13.901-87.367 37.658-122.159a185.866 185.866 0 0 1 57.086-57.086C161.536 45.901 203.594 32 248.902 32c54.017 0 103.417 19.751 141.386 52.418C350.51 38.185 291.58 8.902 225.805 8.902c-42.935 0-82.954 12.478-116.635 34.001a218.058 218.058 0 0 0-66.267 66.267C21.38 142.851 8.902 182.87 8.902 225.805c0 65.775 29.283 124.705 75.516 164.483z" transform="matrix(.10544 0 0 .10544 144.75 30.75)"/><path fill="#ffcf00" d="M390.288 84.418C352.319 51.751 302.919 32 248.902 32c-45.309 0-87.367 13.901-122.159 37.658 28.636-18.205 62.615-28.756 99.061-28.756 27.963 0 54.469 6.219 78.23 17.331 41.561 5.975 79.312 23.726 109.765 49.772a218.168 218.168 0 0 0-23.511-23.587zM69.658 126.744C45.901 161.536 32 203.594 32 248.902c0 54.017 19.751 103.417 52.418 141.386a218.168 218.168 0 0 0 23.587 23.511c-26.046-30.453-43.797-68.204-49.772-109.765-11.112-23.761-17.331-50.267-17.331-78.23 0-36.445 10.551-70.425 28.756-99.06z" transform="matrix(.10544 0 0 .10544 144.75 30.75)"/><path fill="#74749b" d="M470.971 361.418c12.098-27.03 18.833-56.985 18.833-88.516 0-66.005-29.49-125.115-76.005-164.897-30.453-26.046-68.204-43.797-109.765-49.772 24.622 11.515 46.287 28.292 63.549 48.891a186.038 186.038 0 0 1 23.098 23.098C431.157 164.14 456.902 215.06 456.902 272c0 102.119-82.784 184.902-184.902 184.902-56.94 0-107.86-25.745-141.778-66.221a186.038 186.038 0 0 1-23.098-23.098c-20.599-17.261-37.376-38.926-48.891-63.549 5.975 41.561 23.726 79.312 49.772 109.765 39.782 46.514 98.892 76.005 164.897 76.005 31.53 0 61.485-6.735 88.516-18.833 48.635-21.768 87.785-60.918 109.553-109.553z" transform="matrix(.10544 0 0 .10544 144.75 30.75)"/><path fill="#fff" d="M248.902 433.805c-45.179 0-86.565-16.212-118.681-43.124C164.14 431.157 215.06 456.902 272 456.902c102.119 0 184.902-82.784 184.902-184.902 0-56.94-25.745-107.86-66.221-141.778 26.912 32.116 43.124 73.502 43.124 118.681 0 102.118-82.784 184.902-184.903 184.902z" transform="matrix(.10544 0 0 .10544 144.75 30.75)"/><path fill="#fff294" d="M126.744 69.658a185.866 185.866 0 0 0-57.086 57.086c-18.205 28.636-28.756 62.615-28.756 99.061 0 27.963 6.219 54.469 17.331 78.23 11.515 24.622 28.292 46.287 48.891 63.549C80.212 335.468 64 294.081 64 248.902 64 146.784 146.784 64 248.902 64c45.179 0 86.565 16.212 118.681 43.124-17.261-20.599-38.926-37.376-63.549-48.891-23.761-11.112-50.267-17.331-78.23-17.331-36.445 0-70.425 10.551-99.06 28.756z" transform="matrix(.10544 0 0 .10544 144.75 30.75)"/><path fill="#39394a" d="M64 248.902c0 45.179 16.212 86.565 43.124 118.681a186.038 186.038 0 0 0 23.098 23.098c32.116 26.912 73.502 43.124 118.681 43.124 102.119 0 184.902-82.784 184.902-184.902 0-45.179-16.212-86.565-43.124-118.681a186.038 186.038 0 0 0-23.098-23.098C335.468 80.212 294.081 64 248.902 64 146.784 64 64 146.784 64 248.902z" transform="matrix(.10544 0 0 .10544 144.75 30.75)"/></g></defs><g fi:class="KUsePattern"><pattern id="b" width="350" height="350" patternUnits="userSpaceOnUse"><use x="-350" y="-350" xlink:href="#a"/><use y="-350" xlink:href="#a"/><use x="350" y="-350" xlink:href="#a"/><use x="-350" xlink:href="#a"/><use xlink:href="#a"/><use x="350" xlink:href="#a"/><use x="-350" y="350" xlink:href="#a"/><use y="350" xlink:href="#a"/><use x="350" y="350" xlink:href="#a"/></pattern><rect width="100%" height="100%" fill="url(#b)"/></g><g fi:class="KUsePattern"><pattern id="d" width="350" height="350" patternUnits="userSpaceOnUse"><use x="-350" y="-350" xlink:href="#c"/><use y="-350" xlink:href="#c"/><use x="350" y="-350" xlink:href="#c"/><use x="-350" xlink:href="#c"/><use xlink:href="#c"/><use x="350" xlink:href="#c"/><use x="-350" y="350" xlink:href="#c"/><use y="350" xlink:href="#c"/><use x="350" y="350" xlink:href="#c"/></pattern><rect width="100%" height="100%" fill="url(#d)"/></g><g fi:class="KUsePattern"><pattern id="f" width="350" height="350" patternUnits="userSpaceOnUse"><use x="-350" y="-350" xlink:href="#e"/><use y="-350" xlink:href="#e"/><use x="350" y="-350" xlink:href="#e"/><use x="-350" xlink:href="#e"/><use xlink:href="#e"/><use x="350" xlink:href="#e"/><use x="-350" y="350" xlink:href="#e"/><use y="350" xlink:href="#e"/><use x="350" y="350" xlink:href="#e"/></pattern><rect width="100%" height="100%" fill="url(#f)"/></g><g fi:class="KUsePattern"><pattern id="h" width="350" height="350" patternUnits="userSpaceOnUse"><use x="-350" y="-350" xlink:href="#g"/><use y="-350" xlink:href="#g"/><use x="350" y="-350" xlink:href="#g"/><use x="-350" xlink:href="#g"/><use xlink:href="#g"/><use x="350" xlink:href="#g"/><use x="-350" y="350" xlink:href="#g"/><use y="350" xlink:href="#g"/><use x="350" y="350" xlink:href="#g"/></pattern><rect width="100%" height="100%" fill="url(#h)"/></g><g fi:class="KUsePattern"><pattern id="j" width="350" height="350" patternUnits="userSpaceOnUse"><use x="-350" y="-350" xlink:href="#i"/><use y="-350" xlink:href="#i"/><use x="350" y="-350" xlink:href="#i"/><use x="-350" xlink:href="#i"/><use xlink:href="#i"/><use x="350" xlink:href="#i"/><use x="-350" y="350" xlink:href="#i"/><use y="350" xlink:href="#i"/><use x="350" y="350" xlink:href="#i"/></pattern><rect width="100%" height="100%" fill="url(#j)"/></g><g fi:class="KUsePattern"><pattern id="l" width="350" height="350" patternUnits="userSpaceOnUse"><use x="-350" y="-350" xlink:href="#k"/><use y="-350" xlink:href="#k"/><use x="350" y="-350" xlink:href="#k"/><use x="-350" xlink:href="#k"/><use xlink:href="#k"/><use x="350" xlink:href="#k"/><use x="-350" y="350" xlink:href="#k"/><use y="350" xlink:href="#k"/><use x="350" y="350" xlink:href="#k"/></pattern><rect width="100%" height="100%" fill="url(#l)"/></g><g fi:class="KUsePattern"><pattern id="n" width="350" height="350" patternUnits="userSpaceOnUse"><use x="-350" y="-350" xlink:href="#m"/><use y="-350" xlink:href="#m"/><use x="350" y="-350" xlink:href="#m"/><use x="-350" xlink:href="#m"/><use xlink:href="#m"/><use x="350" xlink:href="#m"/><use x="-350" y="350" xlink:href="#m"/><use y="350" xlink:href="#m"/><use x="350" y="350" xlink:href="#m"/></pattern><rect width="100%" height="100%" fill="url(#n)"/></g><g fi:class="KUsePattern"><pattern id="p" width="350" height="350" patternUnits="userSpaceOnUse"><use x="-350" y="-350" xlink:href="#o"/><use y="-350" xlink:href="#o"/><use x="350" y="-350" xlink:href="#o"/><use x="-350" xlink:href="#o"/><use xlink:href="#o"/><use x="350" xlink:href="#o"/><use x="-350" y="350" xlink:href="#o"/><use y="350" xlink:href="#o"/><use x="350" y="350" xlink:href="#o"/></pattern><rect width="100%" height="100%" fill="url(#p)"/></g><g fi:class="KUsePattern"><pattern id="r" width="350" height="350" patternUnits="userSpaceOnUse"><use x="-350" y="-350" xlink:href="#q"/><use y="-350" xlink:href="#q"/><use x="350" y="-350" xlink:href="#q"/><use x="-350" xlink:href="#q"/><use xlink:href="#q"/><use x="350" xlink:href="#q"/><use x="-350" y="350" xlink:href="#q"/><use y="350" xlink:href="#q"/><use x="350" y="350" xlink:href="#q"/></pattern><rect width="100%" height="100%" fill="url(#r)"/></g></svg>